PathFileType	4	(X/Y/Z)	C:\Data Capture\Research\archery\Archery pilot8.trc
DataRate	CameraRate	NumFrames	NumMarkers	Units	OrigDataRate	OrigDataStartFrame	OrigNumFrames
100.00	100.00	       58	3	mm	100.00	534	       800
Frame#	Time	Marker 1			Marker 2			Marker 3			
		X1	Y1	Z1	X2	Y2	Z2	X3	Y3	Z3	

534	5.330	58.33413	457.40207	1316.27136	144.35448	455.45578	1265.55591	75.88557	465.06329	1175.82605	
535	5.340	58.36825	457.32962	1316.27185	144.34131	455.40817	1265.56372	75.99062	464.91016	1175.84705	
536	5.350	58.38916	457.27451	1316.26233	144.32889	455.36633	1265.55164	76.08190	464.76007	1175.85425	
537	5.360	58.39630	457.22653	1316.24561	144.31821	455.32169	1265.51855	76.15440	464.62469	1175.84863	
538	5.370	58.38716	457.17416	1316.22583	144.30882	455.26331	1265.46814	76.20966	464.51144	1175.83521	
539	5.380	58.35904	457.10794	1316.20654	144.30156	455.17770	1265.40857	76.25352	464.42010	1175.82104	
540	5.390	58.31084	457.02393	1316.19055	144.30048	455.05234	1265.35120	76.29407	464.34363	1175.81226	
541	5.400	58.24441	456.92575	1316.17993	144.31067	454.88177	1265.30627	76.33941	464.27155	1175.81335	
542	5.410	58.16478	456.82404	1316.17542	144.33301	454.67303	1265.28125	76.39496	464.19394	1175.82690	
543	5.420	58.07875	456.73334	1316.17725	144.36084	454.44604	1265.27979	76.46020	464.10474	1175.85400	
544	5.430	57.99252	456.66782	1316.18469	144.38245	454.22906	1265.30164	76.52736	464.00348	1175.89319	
545	5.440	57.91023	456.63611	1316.19604	144.38791	454.05139	1265.34253	76.58490	463.89523	1175.94080	
546	5.450	57.83471	456.63773	1316.20874	144.37448	453.93604	1265.39624	76.62345	463.78784	1175.99231	
547	5.460	57.76954	456.66400	1316.22168	144.34587	453.89313	1265.45654	76.63960	463.68933	1176.04504	
548	5.470	57.71992	456.70224	1316.23621	144.30835	453.91641	1265.51892	76.63537	463.60532	1176.09888	
549	5.480	57.69021	456.73956	1316.25598	144.26863	453.98340	1265.58203	76.61536	463.53699	1176.15454	
550	5.490	57.68019	456.76471	1316.28516	144.23341	454.05984	1265.64734	76.58438	463.48059	1176.21313	
551	5.500	57.68446	456.76913	1316.32715	144.20877	454.10779	1265.71753	76.54660	463.42847	1176.27429	
552	5.510	57.69549	456.74789	1316.38269	144.19852	454.09680	1265.79443	76.50553	463.37115	1176.33655	
553	5.520	57.70628	456.70041	1316.44971	144.20142	454.01270	1265.87756	76.46394	463.29922	1176.39661	
554	5.530	57.71115	456.62979	1316.52295	144.20920	453.85922	1265.96375	76.42355	463.20563	1176.45313	
555	5.540	57.70606	456.54074	1316.59753	144.20900	453.65393	1266.04871	76.38548	463.08734	1176.50769	
556	5.550	57.68945	456.43661	1316.67114	144.18967	453.42123	1266.12952	76.35120	462.94717	1176.56531	
557	5.560	57.66289	456.31711	1316.74414	144.14592	453.18555	1266.20593	76.32283	462.79501	1176.63245	
558	5.570	57.63131	456.17920	1316.81897	144.07806	452.96710	1266.27808	76.30244	462.64755	1176.71509	
559	5.580	57.60220	456.02066	1316.89771	143.99065	452.77908	1266.34460	76.29163	462.52457	1176.81506	
560	5.590	57.58395	455.84354	1316.98096	143.89218	452.62726	1266.40210	76.29176	462.44180	1176.92896	
561	5.600	57.58327	455.65616	1317.06567	143.79465	452.51205	1266.44592	76.30383	462.40427	1177.04944	
562	5.610	57.60259	455.47220	1317.14526	143.70982	452.43100	1266.47156	76.32665	462.40320	1177.16711	
563	5.620	57.63910	455.30634	1317.21265	143.64511	452.37949	1266.47534	76.35481	462.41669	1177.26965	
564	5.630	57.68531	455.16901	1317.26233	143.60265	452.35080	1266.45776	76.37941	462.41760	1177.34351	
565	5.640	57.73233	455.06354	1317.29346	143.58090	452.33618	1266.42346	76.39201	462.38638	1177.37793	
566	5.650	57.77430	454.98679	1317.30969	143.57692	452.32422	1266.38086	76.38871	462.31885	1177.37085	
567	5.660	57.81012	454.93146	1317.31848	143.58879	452.30157	1266.33801	76.37023	462.22400	1177.32910	
568	5.670	57.84235	454.88788	1317.32703	143.61626	452.25589	1266.30066	76.33900	462.11508	1177.26343	
569	5.680	57.87557	454.84512	1317.34094	143.65958	452.17856	1266.27051	76.29752	462.00375	1177.18335	
570	5.690	57.91497	454.79184	1317.36206	143.71806	452.06516	1266.24670	76.24901	461.89990	1177.09717	
571	5.700	57.96458	454.71829	1317.38794	143.78868	451.91495	1266.22717	76.19777	461.81293	1177.01379	
572	5.710	58.02563	454.61703	1317.41272	143.86519	451.73148	1266.21069	76.14848	461.75119	1176.94238	
573	5.720	58.09553	454.48361	1317.42993	143.93987	451.52274	1266.19592	76.10410	461.72067	1176.89185	
574	5.730	58.16849	454.31738	1317.43542	144.00650	451.29919	1266.18188	76.06361	461.72427	1176.86743	
575	5.740	58.23803	454.12305	1317.42786	144.06154	451.07150	1266.16699	76.02141	461.76117	1176.87000	
576	5.750	58.29992	453.91165	1317.40906	144.10422	450.85074	1266.15100	75.96900	461.82611	1176.89600	
577	5.760	58.35274	453.70078	1317.38293	144.13608	450.64890	1266.13342	75.89856	461.90677	1176.93896	
578	5.770	58.39643	453.51114	1317.35596	144.15898	450.47766	1266.11560	75.80771	461.98276	1176.99072	
579	5.780	58.43045	453.36057	1317.33679	144.17354	450.34561	1266.10034	75.70110	462.03339	1177.04431	
580	5.790	58.45129	453.25720	1317.33411	144.17935	450.25507	1266.09351	75.58678	462.04929	1177.09558	
581	5.800	58.45245	453.19598	1317.35266	144.17587	450.20139	1266.10083	75.47385	462.03354	1177.14319	
582	5.810	58.42925	453.16241	1317.39282	144.16258	450.17505	1266.12732	75.37458	461.99341	1177.18701	
583	5.820	58.38266	453.13971	1317.45239	144.13934	450.16440	1266.17615	75.30442	461.93213	1177.22778	
584	5.830	58.31847	453.11539	1317.52759	144.10695	450.15756	1266.24744	75.27808	461.84375	1177.26721	
585	5.840	58.24483	453.08411	1317.61279	144.06781	450.14526	1266.33789	75.30549	461.71423	1177.30640	
586	5.850	58.17006	453.04660	1317.70117	144.02596	450.12323	1266.44104	75.38950	461.52780	1177.34485	
587	5.860	58.10122	453.00595	1317.78564	143.98608	450.09174	1266.54968	75.52427	461.27600	1177.38074	
588	5.870	58.04423	452.96365	1317.86206	143.95261	450.05237	1266.65820	75.69418	460.96869	1177.41333	
589	5.880	58.00357	452.91647	1317.93005	143.92870	450.00562	1266.76221	75.87608	460.64108	1177.44641	
590	5.890	57.98115	452.85654	1317.99207	143.91553	449.95117	1266.85852	76.04639	460.34265	1177.48865	
591	5.900	57.97564	452.77560	1318.05164	143.91278	449.88864	1266.94531	76.18878	460.11154	1177.54968	
